<svg xmlns="http://www.w3.org/2000/svg" width="38.815" height="31.651" viewBox="0 0 10.27 8.374">
    <defs>
        <clipPath id="a" clipPathUnits="userSpaceOnUse">
            <path d="M-212.598-2516.825h2977.2v4208.4h-2977.2Z" clip-rule="evenodd" />
        </clipPath>
        <clipPath id="c" clipPathUnits="userSpaceOnUse">
            <path d="M-905.819-2874.506h3459.454V2015.58H-905.82Z" clip-rule="evenodd" />
        </clipPath>
    </defs>
    <path d="M597.055-109.876c16.398-15.075 46.356-12.478 59.915 5.194-14.068-11.802-44.025-14.4-59.915-5.194"
        clip-path="url(#a)"
        style="display:inline;fill-opacity:1;fill-rule:evenodd;stroke:#000;stroke-width:1.07575;stroke-linecap:round;stroke-linejoin:round;stroke-miterlimit:10;stroke-dasharray:none;stroke-opacity:1"
        transform="matrix(.10065 -.00775 .01889 .06963 -54.642 13.232)" />
    <path
        d="M57.7-101.219c-16.457 0-28.306 19.537-33.353 38.41l8.775 2.408C36.194-71.373 46.949-80.59 57.7-80.59c3.73 0 7.681.217 11.192.656L59.02-43.065c-3.84 14.478-14.74 27.363-27.95 34.24a8.3 8.3 0 0 0-1.863-1.924c-1.005-.817-2.18-1.397-3.54-1.77-1.363-.41-3.047-.613-5.04-.613q-3.01 0-6.74 1.43c-2.502.919-4.8 2.17-6.876 3.804-2.043 1.634-3.728 3.514-5.039 5.591C.696-.265.066 1.906.066 4.221c-.051 1.09.136 2.145.545 3.2.408 1.09 1.038 2.077 1.906 2.996.902.902 2.06 1.6 3.472 2.11 1.33.455 2.924.712 4.758.75v.715c26.113 0 49.588-26.332 57.269-54.64L78.33-79.057c11.85 1.536 23.48 3.735 35.55 4.613l-13.167 48.937C96.39-9.593 103.652 3.589 116.92 8.46c1.31 1.067 2.836 1.851 4.57 2.366q3.447 1.095 7.328.842c2.612-.145 5.185-.713 7.71-1.694 2.5-.958 4.711-2.292 6.64-4.017 1.522-1.362 2.654-2.726 3.403-4.06.713-1.32 1.113-2.607 1.183-3.88.034-1.265-.156-2.422-.578-3.507-.4-1.059-.964-1.97-1.728-2.749-1.544-1.725-3.466-2.929-5.779-3.6-2.362-.673-4.869-.944-7.48-.8-2.638.168-5.182.762-7.66 1.745-1.66.632-3.105 1.355-4.324 2.162-.951-4.791-.431-10.784 1.14-16.775l12.945-48.716c11.412-.658 23.264-3.078 34.895-6.808l-6.367-19.524c-12.07 3.73-24.363 5.925-36.213 6.145-23.7.22-45.203-6.809-68.903-6.809"
        clip-path="url(#c)" style="display:inline;fill-opacity:1;fill-rule:nonzero;stroke:none"
        transform="translate(-.004 7.524)scale(.06072)" />
</svg>